# xmcd
#
# Track frame offsets:
#	150
#	20710
#	39365
#	63014
#	83153
#	105005
#	124940
#	143180
#	164042
#	187482
#	209555
#	227959
#
# Disc length: 3387 seconds
#
# Revision: 0
# Processed by: cddbd v1.5.2PL0 Copyright (c) Steve Scherf et al.
# Submitted via: EasyCDDAExtractor 12.0.1.1
#
DISCID=ab0d390c
DTITLE=Tonya - Dirty Lover
DYEAR=2002
DGENRE=Blues
TTITLE0=Monkey Talk
TTITLE1=Big Mama
TTITLE2=Thank You Baby
TTITLE3=Super Lover
TTITLE4=Why Do I Continue To Love You
TTITLE5=Whip That Thing
TTITLE6=Trouble Makers
TTITLE7=Midnight Train
TTITLE8=The Letter
TTITLE9=Trials, And Tribulations
TTITLE10=Dirty Lover
TTITLE11=Monkey Talk (Club Mix)
EXTD=
EXTT0=
EXTT1=
EXTT2=
EXTT3=
EXTT4=
EXTT5=
EXTT6=
EXTT7=
EXTT8=
EXTT9=
EXTT10=
EXTT11=
PLAYORDER=
